HIERARCHY
ROOT Hips
{
	OFFSET 0.000000 0.000000 0.000000
	CHANNELS 6 Xposition Yposition Zposition Zrotation Yrotation Xrotation 
	JOINT LeftUpLeg_virtual
	{
		OFFSET 0.000000 0.000000 0.000000
		CHANNELS 3 Zrotation Yrotation Xrotation
		JOINT LeftUpLeg
		{
			OFFSET 10.205400 -3.823500 0.155100
			CHANNELS 3 Zrotation Yrotation Xrotation
			JOINT LeftLeg
			{
				OFFSET 0.708757 -12.982077 0.567790
				CHANNELS 3 Zrotation Yrotation Xrotation
				JOINT LeftFoot
				{
					OFFSET -0.708756 -10.717838 -2.184338
					CHANNELS 3 Zrotation Yrotation Xrotation
					JOINT LeftToeBase
					{
						OFFSET 0.108149 -7.191104 7.560241
						CHANNELS 3 Zrotation Yrotation Xrotation
						End Site
						{
							OFFSET 0.000000 0.000000 0.000000
						}
					}
				}
			}
		}
	}
	JOINT RightUpLeg_virtual
	{
		OFFSET 0.000000 0.000000 0.000000
		CHANNELS 3 Zrotation Yrotation Xrotation
		JOINT RightUpLeg
		{
			OFFSET -10.205400 -3.823500 0.005500
			CHANNELS 3 Zrotation Yrotation Xrotation
			JOINT RightLeg
			{
				OFFSET -0.708756 -12.982134 0.610632
				CHANNELS 3 Zrotation Yrotation Xrotation
				JOINT RightFoot
				{
					OFFSET 0.708754 -10.717769 -1.945823
					CHANNELS 3 Zrotation Yrotation Xrotation
					JOINT RightToeBase
					{
						OFFSET -0.108140 -7.191069 7.372968
						CHANNELS 3 Zrotation Yrotation Xrotation
						End Site
						{
							OFFSET 0.000000 0.000000 0.000000
						}
					}
				}
			}
		}
	}
	JOINT Spine_virtual
	{
		OFFSET 0.000000 0.000000 0.000000
		CHANNELS 3 Zrotation Yrotation Xrotation
		JOINT Spine
		{
			OFFSET 0.000000 6.876099 0.125700
			CHANNELS 3 Zrotation Yrotation Xrotation
			JOINT Spine1
			{
				OFFSET 0.000000 8.022060 0.146608
				CHANNELS 3 Zrotation Yrotation Xrotation
				JOINT Spine2
				{
					OFFSET 0.000000 9.168068 0.167552
					CHANNELS 3 Zrotation Yrotation Xrotation
					JOINT Neck_virtual
					{
						OFFSET 0.000000 0.000000 0.000000
						CHANNELS 3 Zrotation Yrotation Xrotation
						JOINT Neck
						{
							OFFSET 0.000000 10.314075 0.188496
							CHANNELS 3 Zrotation Yrotation Xrotation
							JOINT Head
							{
								OFFSET 0.000000 7.643700 -2.377400
								CHANNELS 3 Zrotation Yrotation Xrotation
								End Site
								{
									OFFSET 0.000000 0.000000 0.000000
								}
							}
						}
					}
					JOINT LeftShoulder_virtual
					{
						OFFSET 0.000000 0.000000 0.000000
						CHANNELS 3 Zrotation Yrotation Xrotation
						JOINT LeftShoulder
						{
							OFFSET 4.392200 8.824978 0.174984
							CHANNELS 3 Zrotation Yrotation Xrotation
							JOINT LeftArm
							{
								OFFSET 8.771219 -2.981674 -0.026999
								CHANNELS 3 Zrotation Yrotation Xrotation
								JOINT LeftForeArm
								{
									OFFSET 8.512804 0.000000 -0.000000
									CHANNELS 3 Zrotation Yrotation Xrotation
									JOINT LeftHand
									{
										OFFSET 18.484802 0.000000 -0.000000
										CHANNELS 3 Zrotation Yrotation Xrotation
										End Site
										{
											OFFSET 0.000000 0.000000 0.000000
										}
									}
								}
							}
						}
					}
					JOINT RightShoulder_virtual
					{
						OFFSET 0.000000 0.000000 0.000000
						CHANNELS 3 Zrotation Yrotation Xrotation
						JOINT RightShoulder
						{
							OFFSET -4.392200 8.824993 0.141379
							CHANNELS 3 Zrotation Yrotation Xrotation
							JOINT RightArm
							{
								OFFSET -8.771282 -2.981682 -0.094208
								CHANNELS 3 Zrotation Yrotation Xrotation
								JOINT RightForeArm
								{
									OFFSET -8.494598 0.000000 0.000000
									CHANNELS 3 Zrotation Yrotation Xrotation
									JOINT RightHand
									{
										OFFSET -18.483803 0.000000 0.000001
										CHANNELS 3 Zrotation Yrotation Xrotation
										End Site
										{
											OFFSET 0.000000 0.000000 0.000000
										}
									}
								}
							}
						}
					}
				}
			}
		}
	}
}
MOTION
Frames: 11
Frame Time: 0.033333
-2.405582 36.231995 24.286081 179.937454 5.701507 -179.686363 -2.968364 -4.028699 10.708427 -8.470214 2.204305 -15.304512 14.759021 3.796446 18.455870 0.818635 -1.844617 4.312241 0.000000 0.000000 0.000000 1.832633 -1.078848 8.588813 -2.775497 0.841967 -13.365255 -7.035397 1.449501 17.793073 7.929436 3.346991 6.746741 0.000000 0.000000 0.000000 0.856315 0.184927 -0.871877 -3.867631 1.783873 -8.316786 -0.147537 -3.233365 4.361942 -0.039061 0.044667 0.020298 -0.360990 -1.755253 6.494413 -5.560294 5.444780 10.856001 0.000000 0.000000 0.000000 1.454970 -0.950998 3.745690 -7.053435 1.488182 -6.570970 -3.003777 9.441673 -38.259749 -0.405968 -41.256614 -0.446707 0.000000 0.000000 0.000000 -2.191618 -0.171648 3.096915 20.751079 -6.129886 -14.841724 8.088653 -3.202222 -38.049143 1.492690 28.201668 2.330248 0.000000 0.000000 0.000000 
-2.411444 36.221722 24.309900 -179.973422 5.692087 -179.528749 -2.909784 -4.032729 10.892263 -8.278457 1.879490 -15.081141 14.895012 3.127836 18.517452 0.622999 -2.036038 4.271959 0.000000 0.000000 0.000000 1.910103 -1.140776 8.698676 -2.734685 0.612631 -13.157923 -6.915838 1.480838 17.964139 8.026122 3.364824 6.967390 0.000000 0.000000 0.000000 0.898828 0.212146 -1.003119 -3.787933 1.733326 -8.365205 -0.097326 -3.236603 4.326374 0.013197 0.030532 0.019920 -0.392242 -1.697685 6.510941 -5.454997 5.307251 10.830879 0.000000 0.000000 0.000000 1.394314 -0.942164 3.731871 -7.130110 1.459408 -6.452190 -3.005674 9.462547 -38.279331 -0.369163 -40.972392 -0.499798 0.000000 0.000000 0.000000 -2.285655 -0.176664 3.173071 20.883727 -6.113454 -14.895297 7.974224 -3.338965 -38.130682 1.457594 28.152298 2.343692 0.000000 0.000000 0.000000 
-2.414502 36.218014 24.317532 -179.959393 5.747295 -179.521291 -2.935357 -4.040184 10.838639 -8.276606 1.832330 -15.064317 14.990401 3.170933 18.577727 0.616650 -2.046015 4.258699 0.000000 0.000000 0.000000 1.879836 -1.144739 8.651830 -2.686600 0.589997 -13.069037 -6.908336 1.480451 17.848748 8.042002 3.396773 6.990731 0.000000 0.000000 0.000000 0.865844 0.164023 -1.118934 -3.694929 1.640937 -8.327292 -0.060174 -3.228629 4.371513 -0.012440 -0.001489 0.016046 -0.342567 -1.615770 6.607507 -5.185549 5.052941 10.914797 0.000000 0.000000 0.000000 1.432816 -0.866524 3.747477 -7.289674 1.478404 -6.298705 -2.961976 9.425258 -38.302174 -0.245913 -40.658340 -0.655736 0.000000 0.000000 0.000000 -2.248598 -0.075149 3.270971 20.947413 -5.993451 -14.853790 7.951613 -3.571411 -38.304954 1.406925 28.409810 2.409826 0.000000 0.000000 0.000000 
-2.410274 36.215656 24.318569 -179.987465 5.857980 -179.516660 -2.973075 -4.005258 10.739982 -8.292308 1.795033 -14.998120 15.043384 3.142174 18.633007 0.642613 -2.016002 4.293783 0.000000 0.000000 0.000000 1.817271 -1.110664 8.564530 -2.655139 0.533180 -12.961105 -6.882333 1.455638 17.740515 8.101115 3.448444 7.023212 0.000000 0.000000 0.000000 0.807409 0.199580 -1.275915 -3.624134 1.621267 -8.242567 -0.021511 -3.167876 4.435244 0.011895 0.016354 0.028919 -0.339956 -1.598348 6.685587 -4.757370 4.643339 11.099664 0.000000 0.000000 0.000000 1.432309 -0.815888 3.770789 -7.445406 1.469917 -6.337606 -3.052585 9.291269 -38.240604 -0.319730 -40.411801 -0.599975 0.000000 0.000000 0.000000 -2.260423 -0.017966 3.278365 20.939005 -5.971921 -14.691993 7.851043 -3.838474 -38.385117 1.262533 28.782479 2.397544 0.000000 0.000000 0.000000 
-2.401334 36.212925 24.324356 -179.986345 5.999408 -179.525717 -2.962902 -3.974441 10.609176 -8.287853 1.730693 -14.885625 15.103826 3.077001 18.706645 0.715596 -1.936675 4.321742 0.000000 0.000000 0.000000 1.765761 -1.071973 8.440148 -2.587808 0.453230 -12.852148 -6.881020 1.426980 17.722802 8.159263 3.528461 7.059523 0.000000 0.000000 0.000000 0.768630 0.205459 -1.298597 -3.523178 1.625458 -8.235122 0.020601 -3.118730 4.426153 0.019138 0.029336 -0.014441 -0.260274 -1.570294 6.791433 -4.142500 4.234237 11.246938 0.000000 0.000000 0.000000 1.434104 -0.756342 3.962538 -7.648781 1.464288 -6.365769 -3.198183 9.216008 -38.250306 -0.333333 -40.258778 -0.567102 0.000000 0.000000 0.000000 -2.264010 0.048425 3.494483 20.811853 -5.920271 -14.528620 7.804137 -4.071206 -38.507292 1.157682 29.178459 2.421855 0.000000 0.000000 0.000000 
-2.391131 36.208504 24.342102 179.969706 6.050969 -179.516646 -3.035738 -3.992063 10.454708 -8.296377 1.576838 -14.780130 15.215515 3.051201 18.774757 0.756126 -1.877843 4.353568 0.000000 0.000000 0.000000 1.676743 -1.070042 8.300605 -2.504912 0.372700 -12.793670 -6.867535 1.314532 17.786028 8.241561 3.612379 7.072718 0.000000 0.000000 0.000000 0.693471 0.157110 -1.347438 -3.441078 1.649316 -8.240623 0.066111 -3.078234 4.492270 0.021024 0.026932 0.018241 -0.227039 -1.472438 6.808192 -3.558608 3.728532 11.486598 0.000000 0.000000 0.000000 1.424950 -0.729363 3.942547 -7.863901 1.441910 -6.314816 -3.411495 9.260214 -38.350508 -0.330016 -40.203299 -0.527095 0.000000 0.000000 0.000000 -2.273674 0.070298 3.514632 20.557141 -5.828740 -14.365387 7.895583 -4.227482 -38.547306 1.053447 29.557760 2.434516 0.000000 0.000000 0.000000 
-2.387684 36.204094 24.367657 -179.999418 6.034481 -179.535839 -2.987448 -3.991627 10.348449 -8.308675 1.467234 -14.698992 15.299492 2.992742 18.852683 0.787196 -1.819869 4.375484 0.000000 0.000000 0.000000 1.666442 -1.072081 8.209544 -2.461146 0.245470 -12.780729 -6.893363 1.261911 17.876060 8.361834 3.673676 7.072382 0.000000 0.000000 0.000000 0.716371 0.176828 -1.266920 -3.347463 1.742799 -8.298364 0.104702 -3.037631 4.500906 0.022460 0.049884 0.077436 -0.148686 -1.486388 6.935010 -2.936903 3.264881 11.862736 0.000000 0.000000 0.000000 1.421749 -0.762710 4.040844 -8.008683 1.334949 -6.191097 -3.720755 9.325104 -38.407025 -0.300505 -40.160850 -0.444110 0.000000 0.000000 0.000000 -2.271095 0.037507 3.502196 20.226519 -5.753721 -14.059555 8.085237 -4.366411 -38.742749 1.027546 29.801027 2.425567 0.000000 0.000000 0.000000 
-2.391252 36.205532 24.392698 179.996043 6.067199 -179.510690 -3.011300 -3.965394 10.267321 -8.337162 1.328914 -14.715026 15.403320 2.961014 18.882087 0.807137 -1.766789 4.381539 0.000000 0.000000 0.000000 1.632994 -1.009699 8.140175 -2.451118 0.128447 -12.806997 -6.928913 1.103435 17.962617 8.524205 3.698147 7.122088 0.000000 0.000000 0.000000 0.705979 0.123266 -1.346713 -3.249330 1.806886 -8.309151 0.151403 -3.063869 4.599922 0.006599 0.022045 0.028009 -0.092980 -1.447505 7.037800 -2.402707 2.827620 12.128404 0.000000 0.000000 0.000000 1.437668 -0.697856 4.022853 -8.091541 1.241880 -6.078332 -4.089291 9.518120 -38.390523 -0.386300 -40.127003 -0.200486 0.000000 0.000000 0.000000 -2.238189 0.099789 3.617325 19.818694 -5.445950 -13.722138 8.535188 -4.602662 -38.836476 1.014722 30.012746 2.328306 0.000000 0.000000 0.000000 
-2.389613 36.207184 24.417212 179.958860 6.067432 -179.507740 -3.022827 -3.964229 10.228990 -8.363693 1.210787 -14.754732 15.533139 2.915303 18.925747 0.816641 -1.704314 4.435492 0.000000 0.000000 0.000000 1.576141 -0.985456 8.098924 -2.429425 0.006810 -12.827048 -6.986831 0.917366 18.018553 8.734527 3.721563 7.199576 0.000000 0.000000 0.000000 0.698270 0.105281 -1.360469 -3.165995 1.936874 -8.354129 0.275700 -3.084148 4.656928 -0.011497 0.020199 0.015151 -0.001561 -1.487938 7.181914 -1.965138 2.482244 12.465406 0.000000 0.000000 0.000000 1.445061 -0.728563 4.137937 -8.081056 1.022807 -5.874040 -4.794226 9.812818 -38.392934 -0.381696 -40.082719 -0.003443 0.000000 0.000000 0.000000 -2.208644 0.071783 3.709054 19.375042 -5.120232 -13.278981 9.274111 -4.865442 -39.269155 1.079441 30.180458 2.176287 0.000000 0.000000 0.000000 
-2.389066 36.207321 24.438101 179.990771 6.092293 -179.515226 -2.995315 -3.983010 10.212583 -8.416598 1.145548 -14.796531 15.670843 2.908263 19.002788 0.768587 -1.681126 4.495950 0.000000 0.000000 0.000000 1.593586 -1.001957 8.061535 -2.480951 -0.118021 -12.826807 -6.995606 0.734428 18.014006 8.998634 3.701022 7.316672 0.000000 0.000000 0.000000 0.725227 0.061342 -1.366889 -2.970969 2.121931 -8.387453 0.272791 -3.125602 4.705049 0.009474 0.012108 0.044226 0.064177 -1.510854 7.275787 -1.691420 2.218666 12.751223 0.000000 0.000000 0.000000 1.510162 -0.786729 4.238446 -8.032267 0.782136 -5.668514 -5.921236 10.338585 -38.349265 -0.507566 -40.242296 0.359493 0.000000 0.000000 0.000000 -2.159834 0.029463 3.886671 18.839974 -4.668594 -12.738068 10.399381 -5.267218 -39.740305 1.076217 30.449998 1.854858 0.000000 0.000000 0.000000 
-2.388302 36.201378 24.464584 -179.982492 6.179846 -179.518272 -2.936948 -3.986280 10.197534 -8.495372 1.131290 -14.849268 15.779789 2.964262 19.065619 0.694041 -1.669547 4.525900 0.000000 0.000000 0.000000 1.610987 -0.954771 7.995597 -2.549140 -0.237372 -12.826184 -7.019032 0.479652 17.991951 9.289038 3.686893 7.349780 0.000000 0.000000 0.000000 0.758825 0.076967 -1.446176 -2.748237 2.409289 -8.371040 0.299587 -3.148359 4.779691 0.007628 0.056653 0.026320 0.053610 -1.576328 7.402760 -1.620170 1.993420 13.062085 0.000000 0.000000 0.000000 1.516038 -0.937556 4.412044 -7.914707 0.452106 -5.667574 -7.901597 11.025989 -38.384229 -0.683161 -40.686047 0.761884 0.000000 0.000000 0.000000 -2.126153 -0.124386 3.899060 18.295278 -4.242802 -11.913498 11.981730 -5.779566 -40.049241 1.042992 30.896900 1.406774 0.000000 0.000000 0.000000 
